<svg width="200" height="200" viewBox="0 0 200 200" fill="none" xmlns="http://www.w3.org/2000/svg">
<path d="M51.0404 139.582C50.2277 140.277 49.2384 140.732 48.1824 140.898C47.1263 141.064 46.045 140.933 45.0586 140.521L34.5544 136.115C33.5066 135.677 32.6108 134.942 31.9786 133.998C31.3465 133.055 31.0062 131.947 31 130.812V69.1735C31.0062 68.0382 31.3465 66.9299 31.9786 65.9869C32.6108 65.0439 33.5066 64.3079 34.5544 63.8708L45.0586 59.5362C46.045 59.1242 47.1263 58.9939 48.1824 59.1597C49.2384 59.3255 50.2277 59.781 51.0404 60.4754L53.3956 62.426C52.918 62.0826 52.3548 61.8779 51.7682 61.8343C51.1816 61.7907 50.5944 61.91 50.0713 62.179C49.5482 62.4481 49.1096 62.8563 48.8038 63.3588C48.498 63.8613 48.337 64.4385 48.3385 65.0267V134.959C48.337 135.547 48.498 136.124 48.8038 136.627C49.1096 137.129 49.5482 137.537 50.0713 137.806C50.5944 138.075 51.1816 138.195 51.7682 138.151C52.3548 138.108 52.918 137.903 53.3956 137.559L51.0404 139.582Z" fill="#52218A"/>
<path d="M34.5544 136.115C33.5066 135.678 32.6108 134.942 31.9786 133.999C31.3465 133.056 31.0062 131.947 31 130.812V130.335C31.0071 131.002 31.214 131.652 31.5939 132.2C31.9739 132.749 32.5094 133.171 33.1315 133.412C33.7536 133.653 34.4336 133.702 35.0839 133.553C35.7341 133.403 36.3247 133.063 36.7795 132.575L126.362 33.5285C127.63 32.2662 129.259 31.4274 131.023 31.1273C132.787 30.8272 134.601 31.0805 136.216 31.8525L164.795 45.6077C166.267 46.3155 167.51 47.4248 168.379 48.8077C169.248 50.1907 169.709 51.791 169.708 53.4244V53.7568C169.707 52.7205 169.412 51.7058 168.858 50.8305C168.303 49.9552 167.511 49.2552 166.575 48.8119C165.638 48.3686 164.595 48.2001 163.566 48.326C162.538 48.4519 161.566 48.8671 160.764 49.5233L53.3956 137.56L51.0404 139.582C50.2277 140.277 49.2384 140.732 48.1824 140.898C47.1263 141.064 46.045 140.933 45.0586 140.521L34.5544 136.115Z" fill="#6C33AF"/>
<path d="M34.5544 63.8708C33.5066 64.3079 32.6108 65.0439 31.9786 65.9869C31.3465 66.9299 31.0062 68.0382 31 69.1735V69.6503C31.0071 68.9832 31.214 68.3336 31.5939 67.7852C31.9739 67.2368 32.5094 66.8148 33.1315 66.5738C33.7536 66.3327 34.4336 66.2836 35.0839 66.4328C35.7341 66.582 36.3247 66.9226 36.7795 67.4108L126.362 166.457C127.63 167.719 129.259 168.558 131.023 168.858C132.787 169.158 134.601 168.905 136.216 168.133L164.795 154.378C166.267 153.67 167.51 152.561 168.379 151.178C169.248 149.795 169.709 148.194 169.708 146.561V146.229C169.707 147.265 169.412 148.28 168.858 149.155C168.303 150.03 167.511 150.73 166.575 151.174C165.638 151.617 164.595 151.785 163.566 151.659C162.538 151.534 161.566 151.118 160.764 150.462L53.3956 62.4259L51.0404 60.4031C50.2205 59.7206 49.2277 59.2784 48.1719 59.1254C47.1161 58.9724 46.0386 59.1146 45.0586 59.5362L34.5544 63.8708Z" fill="#854CC7"/>
<path d="M136.216 168.133C134.601 168.905 132.787 169.158 131.023 168.858C129.259 168.558 127.63 167.719 126.362 166.457C127.074 167.164 127.979 167.644 128.964 167.838C129.948 168.032 130.968 167.93 131.895 167.545C132.821 167.161 133.614 166.511 134.172 165.677C134.73 164.843 135.029 163.863 135.031 162.859V37.1551C135.035 36.1493 134.74 35.1651 134.184 34.3268C133.628 33.4886 132.836 32.834 131.908 32.4458C130.98 32.0577 129.958 31.9533 128.971 32.146C127.983 32.3388 127.076 32.8199 126.362 33.5285C127.63 32.2662 129.259 31.4274 131.023 31.1273C132.787 30.8272 134.601 31.0805 136.216 31.8525L164.795 45.5932C166.268 46.301 167.51 47.4103 168.379 48.7933C169.248 50.1762 169.709 51.7766 169.708 53.41V146.576C169.709 148.209 169.248 149.809 168.379 151.192C167.51 152.575 166.268 153.684 164.795 154.392L136.216 168.133Z" fill="#B179F1"/>
<g opacity="0.25">
<path fill-rule="evenodd" clip-rule="evenodd" d="M130.537 168.769C132.448 169.205 134.449 168.981 136.216 168.133L164.795 154.392C166.267 153.684 167.51 152.575 168.379 151.192C169.248 149.809 169.709 148.209 169.708 146.575V53.41C169.709 51.7766 169.248 50.1762 168.379 48.7932C167.51 47.4103 166.267 46.301 164.795 45.5932L136.216 31.8524C134.194 30.8804 131.873 30.7302 129.743 31.4334C128.469 31.8603 127.311 32.5775 126.362 33.5285L80.2991 84.4748L53.3956 62.426L51.0404 60.4032C50.3321 59.7975 49.4878 59.3722 48.5796 59.1634C47.6714 58.9546 46.7261 58.9685 45.8244 59.2039C45.5604 59.2622 45.3036 59.3495 45.0586 59.464L34.5544 63.8709C33.5712 64.2768 32.7192 64.9462 32.092 65.8053C31.4649 66.6644 31.087 67.68 31 68.7401C31 68.8846 31 69.0291 31 69.1735V130.812C31 130.956 31 131.101 31 131.245C31.087 132.305 31.4649 133.321 32.092 134.18C32.7192 135.039 33.5712 135.709 34.5544 136.115L45.0586 140.449C45.3036 140.564 45.5604 140.651 45.8244 140.709C46.7261 140.945 47.6714 140.959 48.5796 140.75C49.4878 140.541 50.3321 140.116 51.0404 139.51L53.3956 137.559L80.2991 115.511L126.362 166.457C127.51 167.603 128.957 168.404 130.537 168.769ZM135.031 70.6329L99.2125 99.9927L135.031 129.353V70.6329ZM48.3385 80.1546L66.2694 99.9927L48.3385 119.831V80.1546Z" fill="url(#paint0_linear_301_38)"/>
</g>
<defs>
<linearGradient id="paint0_linear_301_38" x1="100.354" y1="30.9999" x2="100.354" y2="168.985" gradientUnits="userSpaceOnUse">
<stop stop-color="white"/>
<stop offset="1" stop-color="white" stop-opacity="0"/>
</linearGradient>
</defs>
</svg>
