<svg width="1266" height="798" viewBox="0 0 1266 798" fill="none" xmlns="http://www.w3.org/2000/svg">
<path d="M0.40772 10.4763C0.18747 4.80542 4.82989 -0.000542538 10.505 0.000688154C494.691 0.105688 770.939 12.1917 1254.98 12.4483C1260.84 12.4515 1265.55 17.5916 1265.04 23.4349C1238.15 332.69 1229.91 481.027 1264.65 772.544C1265.36 778.458 1260.8 783.79 1254.84 783.857L10.647 797.88C4.878 797.945 0.256403 793.028 0.547647 787.266C16.3379 474.867 11.8236 304.405 0.40772 10.4763Z" fill="#15141F"/>
<path d="M13 17.0003C493.737 16.9338 763.263 28.7545 1244 28.828C1216.77 333.497 1208.3 474.174 1244 761.446L13 775C29.1722 468.194 24.5185 305.551 13 17.0003Z" fill="#9A5631" fill-opacity="0.58"/>
<path d="M14.04 18C253.901 17.9754 441.189 20.9095 628.484 23.8613C815.766 26.8129 1003.05 29.7816 1242.91 29.8271C1215.79 333.381 1207.36 474.174 1242.87 760.458L14.0537 773.987C30.142 468.194 25.5154 305.582 14.04 18Z" stroke="#292624" stroke-opacity="0.5" stroke-width="2"/>
<path d="M26 33.0003C492.287 32.9362 753.713 44.3203 1220 44.391C1212.24 337.811 1212.81 473.294 1220 749.947L26 763C43.4128 462.551 38.9399 306.583 26 33.0003Z" fill="#9A5631" fill-opacity="0.58"/>
<path d="M27.0479 34C259.68 33.9766 441.329 36.8019 622.984 39.6445C804.645 42.4872 986.313 45.346 1218.97 45.3896C1211.25 337.761 1211.81 473.294 1218.97 748.958L27.0586 761.988C44.3794 462.574 39.9353 306.63 27.0479 34Z" stroke="#292624" stroke-opacity="0.5" stroke-width="2"/>
</svg>
