<svg width="146" height="154" viewBox="0 0 146 154" fill="none" xmlns="http://www.w3.org/2000/svg">
<path d="M52.5557 30.4453C59.1724 28.6038 66.207 27.6123 73.5 27.6123C81.9883 27.6123 90.1262 28.9559 97.6631 31.4189L145.898 3.47656L142.8 79.1084C143.587 82.8863 144 86.7823 144 90.7646C144 125.643 112.436 153.917 73.5 153.917C34.5639 153.917 3 125.643 3 90.7646C3 88.3943 3.14668 86.0545 3.43066 83.752L0 0L52.5557 30.4453Z" fill="#15141F"/>
<ellipse cx="42.0891" cy="80.2508" rx="16.7525" ry="18.3459" fill="#D9D9D9"/>
<ellipse cx="42.0891" cy="80.2508" rx="16.7525" ry="18.3459" fill="#FFD341"/>
<ellipse cx="104.911" cy="80.2508" rx="16.7525" ry="18.3459" fill="#FFD341"/>
<ellipse cx="41.7401" cy="80.2508" rx="7.32921" ry="10.5842" fill="#1E1E1E"/>
<ellipse cx="104.562" cy="80.2508" rx="7.32921" ry="10.5842" fill="#1E1E1E"/>
<ellipse cx="63.7277" cy="117.648" rx="9.77228" ry="8.46735" fill="white"/>
<ellipse cx="83.2723" cy="117.648" rx="9.77228" ry="8.46735" fill="white"/>
</svg>
